<svg xmlns="http://www.w3.org/2000/svg" width="16" height="16" viewBox="0 0 16 16" fill="none">
  <path d="M4.54004 11.8149C6.67661 11.4466 8.85877 11.4259 11.002 11.7534L11.2988 11.7983L11.3008 11.8003L11.4199 11.8218C11.8807 11.9022 12.3418 12.0003 12.7998 12.1147C12.263 12.7429 11.6097 13.2631 10.8711 13.6401C9.9788 14.0956 8.99088 14.3322 7.98926 14.3306C6.98756 14.3288 6.00018 14.0889 5.10938 13.6304C4.37199 13.2507 3.7202 12.7282 3.18555 12.0981C3.63556 11.9876 4.08887 11.8928 4.54004 11.8149ZM8.84375 1.73877C11.9341 2.15224 14.3184 4.79984 14.3184 8.00635L14.3076 8.38818C14.2645 9.11585 14.0928 9.8292 13.8057 10.4985C13.4515 10.1335 13.1116 9.75476 12.7861 9.36377C11.3941 7.69202 10.2841 5.80349 9.50195 3.77295L9.39258 3.48877L9.39453 3.48486L9.35352 3.37256C9.16009 2.83552 8.99027 2.29033 8.84375 1.73877ZM7.06738 1.75146C6.91751 2.31425 6.74466 2.87088 6.5459 3.41846C5.80217 5.46456 4.72766 7.37457 3.36621 9.07275L3.17871 9.30615L3.17578 9.30713L3.09766 9.3999C2.80172 9.754 2.48957 10.1005 2.16602 10.437C1.84605 9.66834 1.67945 8.84232 1.68066 8.00635L1.68848 7.69482C1.83552 4.65974 4.12032 2.18765 7.06738 1.75146ZM7.95703 6.95459C8.287 7.5967 8.64673 8.22274 9.03613 8.83057C8.67622 8.81372 8.3149 8.80322 7.95703 8.80322C7.60431 8.80322 7.24273 8.81355 6.87695 8.83057C7.26646 8.22254 7.62697 7.59685 7.95703 6.95459Z" fill="#2C786C" fill-opacity="0.24" stroke="#2C786C" stroke-width="0.695652"/>
</svg>
